<svg width="180" height="21" viewBox="0 0 180 21" fill="none" xmlns="http://www.w3.org/2000/svg">
<path d="M4 4.53491V0.46521L11 0.534903V4.53491L7 4.60461V8.53491H4V12.5349H7V16.5349H11V20.5349H4V16.5349L0 16.5349V12.5349V7.83253V7.24325V4.53492L4 4.53491Z" fill="#2A2A2A" style="fill:#2A2A2A;fill:color(display-p3 0.1648 0.1648 0.1648);fill-opacity:1;"/>
<path d="M24 4.53491V0.46521L17 0.534903V4.53491L21 4.60461V8.53491H24V12.5349H21V16.5349H17V20.5349H24V16.5349L28 16.5349V12.5349V7.83253V7.24325V4.53492L24 4.53491Z" fill="#2A2A2A" style="fill:#2A2A2A;fill:color(display-p3 0.1648 0.1648 0.1648);fill-opacity:1;"/>
<path d="M9 8.53491H19V12.5349H9V8.53491Z" fill="url(#paint0_linear_509_8343)" style=""/>
<path d="M46.88 8.98L44.36 13.48H41.84L39.32 8.98V16H36.08V3.4H39.5L43.1 10.06L46.7 3.4H50.12V16H46.88V8.98ZM55.797 8.53C55.317 8.53 55.077 8.77 55.077 9.25V10.24H58.137V9.25C58.137 8.77 57.897 8.53 57.417 8.53H55.797ZM60.927 15.82C58.611 16.06 56.511 16.18 54.627 16.18C53.811 16.18 53.157 15.934 52.665 15.442C52.173 14.95 51.927 14.296 51.927 13.48V9.16C51.927 8.26 52.179 7.558 52.683 7.054C53.199 6.538 53.907 6.28 54.807 6.28H58.407C59.307 6.28 60.009 6.538 60.513 7.054C61.029 7.558 61.287 8.26 61.287 9.16V12.49H55.077V13.21C55.077 13.39 55.137 13.54 55.257 13.66C55.377 13.78 55.527 13.84 55.707 13.84C56.895 13.84 58.635 13.75 60.927 13.57V15.82ZM69.56 16C68.396 16.12 67.256 16.18 66.14 16.18C65.324 16.18 64.67 15.934 64.178 15.442C63.686 14.95 63.44 14.296 63.44 13.48V8.89H62.36V6.46H63.44L63.8 4.3H66.59V6.46H68.84V8.89H66.59V13.03C66.59 13.21 66.65 13.36 66.77 13.48C66.89 13.6 67.04 13.66 67.22 13.66H69.56V16ZM74.2562 13.66C74.8922 13.66 75.6122 13.54 76.4162 13.3V12.22H73.8062C73.6262 12.22 73.4762 12.28 73.3562 12.4C73.2362 12.52 73.1762 12.67 73.1762 12.85V13.03C73.1762 13.21 73.2362 13.36 73.3562 13.48C73.4762 13.6 73.6262 13.66 73.8062 13.66H74.2562ZM70.9262 6.64C73.1222 6.4 75.1022 6.28 76.8662 6.28C77.6822 6.28 78.3362 6.526 78.8282 7.018C79.3202 7.51 79.5662 8.164 79.5662 8.98V16H76.7762L76.5962 15.1C76.0322 15.472 75.4502 15.748 74.8502 15.928C74.2622 16.096 73.7642 16.18 73.3562 16.18H72.7262C71.9102 16.18 71.2562 15.934 70.7642 15.442C70.2722 14.95 70.0262 14.296 70.0262 13.48V12.67C70.0262 11.854 70.2722 11.2 70.7642 10.708C71.2562 10.216 71.9102 9.97 72.7262 9.97H76.4162V9.25C76.4162 9.07 76.3562 8.92 76.2362 8.8C76.1162 8.68 75.9662 8.62 75.7862 8.62C75.0062 8.62 74.1422 8.656 73.1942 8.728C72.2582 8.8 71.5022 8.854 70.9262 8.89V6.64ZM90.5413 3.4L92.7013 11.5L94.5913 3.4H98.1013L94.6813 16H91.2613L89.1013 8.17L86.9413 16H83.5213L80.1012 3.4H83.6113L85.5013 11.5L87.6613 3.4H90.5413ZM102.52 8.53C102.04 8.53 101.8 8.77 101.8 9.25V10.24H104.86V9.25C104.86 8.77 104.62 8.53 104.14 8.53H102.52ZM107.65 15.82C105.334 16.06 103.234 16.18 101.35 16.18C100.534 16.18 99.8797 15.934 99.3877 15.442C98.8957 14.95 98.6497 14.296 98.6497 13.48V9.16C98.6497 8.26 98.9017 7.558 99.4057 7.054C99.9217 6.538 100.63 6.28 101.53 6.28H105.13C106.03 6.28 106.732 6.538 107.236 7.054C107.752 7.558 108.01 8.26 108.01 9.16V12.49H101.8V13.21C101.8 13.39 101.86 13.54 101.98 13.66C102.1 13.78 102.25 13.84 102.43 13.84C103.618 13.84 105.358 13.75 107.65 13.57V15.82ZM116.013 9.34C116.013 9.16 115.953 9.01 115.833 8.89C115.713 8.77 115.563 8.71 115.383 8.71H114.933C114.429 8.71 113.991 8.734 113.619 8.782C113.259 8.83 112.977 8.866 112.773 8.89V13.57H115.293C115.773 13.57 116.013 13.33 116.013 12.85V9.34ZM112.773 6.64C113.937 6.4 114.957 6.28 115.833 6.28H116.463C117.279 6.28 117.933 6.526 118.425 7.018C118.917 7.51 119.163 8.164 119.163 8.98V13.12C119.163 14.02 118.905 14.728 118.389 15.244C117.885 15.748 117.183 16 116.283 16H109.623V3.4H112.773V6.64ZM120.425 13.3H123.665V16H120.425V13.3ZM134.469 3.4L136.629 11.5L138.519 3.4H142.029L138.609 16H135.189L133.029 8.17L130.869 16H127.449L124.029 3.4H127.539L129.429 11.5L131.589 3.4H134.469ZM152.477 13.3C152.477 14.2 152.219 14.908 151.703 15.424C151.199 15.928 150.497 16.18 149.597 16.18H145.457C144.557 16.18 143.849 15.928 143.333 15.424C142.829 14.908 142.577 14.2 142.577 13.3V9.16C142.577 8.26 142.829 7.558 143.333 7.054C143.849 6.538 144.557 6.28 145.457 6.28H149.597C150.497 6.28 151.199 6.538 151.703 7.054C152.219 7.558 152.477 8.26 152.477 9.16V13.3ZM149.327 9.43C149.327 8.95 149.087 8.71 148.607 8.71H146.447C145.967 8.71 145.727 8.95 145.727 9.43V13.03C145.727 13.51 145.967 13.75 146.447 13.75H148.607C149.087 13.75 149.327 13.51 149.327 13.03V9.43ZM159.585 9.07C158.829 9.07 158.049 9.25 157.245 9.61V16H154.095V6.46H156.885L157.065 7.63C158.097 6.73 159.177 6.28 160.305 6.28H161.115V9.07H159.585ZM167.235 16C166.431 16.12 165.663 16.18 164.931 16.18C164.211 16.18 163.605 15.934 163.113 15.442C162.621 14.95 162.375 14.296 162.375 13.48V3.4H165.525V13.03C165.525 13.21 165.585 13.36 165.705 13.48C165.825 13.6 165.975 13.66 166.155 13.66H167.235V16ZM175.242 16L175.062 15.1C174.498 15.472 173.916 15.748 173.316 15.928C172.728 16.096 172.23 16.18 171.822 16.18H171.012C170.196 16.18 169.542 15.934 169.05 15.442C168.558 14.95 168.312 14.296 168.312 13.48V9.34C168.312 8.44 168.564 7.738 169.068 7.234C169.584 6.718 170.292 6.46 171.192 6.46H174.882V3.4H178.032V16H175.242ZM172.722 13.57C173.358 13.57 174.078 13.45 174.882 13.21V8.89H172.182C171.702 8.89 171.462 9.13 171.462 9.61V12.94C171.462 13.12 171.522 13.27 171.642 13.39C171.762 13.51 171.912 13.57 172.092 13.57H172.722Z" fill="#2A2A2A" style="fill:#2A2A2A;fill:color(display-p3 0.1648 0.1648 0.1648);fill-opacity:1;"/>
<defs>
<linearGradient id="paint0_linear_509_8343" x1="8" y1="7.03491" x2="21.5" y2="12.5349" gradientUnits="userSpaceOnUse">
<stop stop-color="#4488FF" style="stop-color:#4488FF;stop-color:color(display-p3 0.2667 0.5333 1.0000);stop-opacity:1;"/>
<stop offset="1" stop-color="#332DFF" style="stop-color:#332DFF;stop-color:color(display-p3 0.2000 0.1765 1.0000);stop-opacity:1;"/>
</linearGradient>
</defs>
</svg>
