<svg xmlns="http://www.w3.org/2000/svg" xmlns:xlink="http://www.w3.org/1999/xlink" width="20" height="20" viewBox="0 0 20 20"><defs><style>.a,.c{fill:#707070;}.a{opacity:0;}.b{clip-path:url(#a);}</style><clipPath id="a"><rect class="a" width="20" height="20" transform="translate(243.609 436.331)"/></clipPath></defs><g transform="translate(-244.801 -437.522)"><g class="b" transform="translate(1.192 1.192)"><path class="c" d="M19.617,11.657v4.334a2.4,2.4,0,0,1-2.422,2.375H4.422A2.4,2.4,0,0,1,2,15.991V5.625A2.4,2.4,0,0,1,4.422,3.25H17.194a2.4,2.4,0,0,1,2.422,2.375v6.032ZM18.3,10.146V5.625a1.091,1.091,0,0,0-1.1-1.08H4.422a1.091,1.091,0,0,0-1.1,1.08V12.6a6.1,6.1,0,0,1,.881-.064,5.994,5.994,0,0,1,3.784,1.333A7.266,7.266,0,0,1,14.772,9.3a7.351,7.351,0,0,1,3.523.85Zm0,1.665a2.483,2.483,0,0,0-.9-.666,6.11,6.11,0,0,0-8.205,3.268q-.085.226-.289.781a.666.666,0,0,1-1.061.264c-.339-.3-.589-.507-.746-.631a4.659,4.659,0,0,0-2.892-1,4.737,4.737,0,0,0-.881.082v2.077a1.091,1.091,0,0,0,1.1,1.08H17.194a1.091,1.091,0,0,0,1.1-1.08v-4.18ZM6.845,10.16A1.944,1.944,0,1,1,8.826,8.217,1.963,1.963,0,0,1,6.845,10.16Zm0-1.3a.648.648,0,1,0-.661-.648A.654.654,0,0,0,6.845,8.865Z" transform="translate(242.801 435.522)"/></g></g></svg>