<svg width="28" height="21" viewBox="0 0 28 21" fill="none" xmlns="http://www.w3.org/2000/svg">
<path d="M4.00006 4.06971V0L11.0001 0.0696934V4.0697L7.00006 4.1394V8.0697H4.00006V12.0697H7.00006V16.0697H11.0001V20.0697H4.00006V16.0697L6.10352e-05 16.0697V12.0697V7.36732V6.77804V4.06971L4.00006 4.06971Z" fill="#2A2A2A" style="fill:#2A2A2A;fill:color(display-p3 0.1648 0.1648 0.1648);fill-opacity:1;"/>
<path d="M24.0001 4.06971V0L17.0001 0.0696934V4.0697L21.0001 4.1394V8.0697H24.0001V12.0697H21.0001V16.0697H17.0001V20.0697H24.0001V16.0697L28.0001 16.0697V12.0697V7.36732V6.77804V4.06971L24.0001 4.06971Z" fill="#2A2A2A" style="fill:#2A2A2A;fill:color(display-p3 0.1648 0.1648 0.1648);fill-opacity:1;"/>
<path d="M9.00006 8.06958H19.0001V12.0696H9.00006V8.06958Z" fill="url(#paint0_linear_577_4109)" style=""/>
<defs>
<linearGradient id="paint0_linear_577_4109" x1="8.00006" y1="6.56958" x2="21.5001" y2="12.0696" gradientUnits="userSpaceOnUse">
<stop stop-color="#4488FF" style="stop-color:#4488FF;stop-color:color(display-p3 0.2667 0.5333 1.0000);stop-opacity:1;"/>
<stop offset="1" stop-color="#332DFF" style="stop-color:#332DFF;stop-color:color(display-p3 0.2000 0.1765 1.0000);stop-opacity:1;"/>
</linearGradient>
</defs>
</svg>
